<mxfile host="app.diagrams.net" modified="2021-11-27T22:39:28.517Z" agent="5.0 (Windows NT 10.0; Win64; x64) AppleWebKit/537.36 (KHTML, like Gecko) Chrome/96.0.4664.45 Safari/537.36" etag="1lPBEWs2_dCUUoGaDqXo" version="15.6.6" type="github" pages="2">
  <diagram id="UDtzyuUQcxQMz5mHsWod" name="Page-1">
    <mxGraphModel dx="830" dy="417" grid="0" gridSize="10" guides="1" tooltips="1" connect="1" arrows="1" fold="1" page="1" pageScale="1" pageWidth="827" pageHeight="1169" background="#ffffff" math="0" shadow="1">
      <root>
        <mxCell id="0" />
        <mxCell id="1" parent="0" />
        <mxCell id="P0c55dOeESKWQFFsauMl-1" value="START" style="ellipse;whiteSpace=wrap;html=1;rounded=1;fillColor=#dae8fc;strokeColor=#6c8ebf;gradientColor=#7ea6e0;fontColor=default;" vertex="1" parent="1">
          <mxGeometry x="239" y="10" width="120" height="60" as="geometry" />
        </mxCell>
        <mxCell id="P0c55dOeESKWQFFsauMl-2" value="" style="shape=flexArrow;endArrow=classic;html=1;fillColor=#fff2cc;gradientColor=#ffd966;strokeColor=#d6b656;labelBackgroundColor=default;fontColor=default;" edge="1" parent="1">
          <mxGeometry width="50" height="50" relative="1" as="geometry">
            <mxPoint x="299" y="80" as="sourcePoint" />
            <mxPoint x="299" y="130" as="targetPoint" />
            <Array as="points">
              <mxPoint x="299" y="110" />
            </Array>
          </mxGeometry>
        </mxCell>
        <mxCell id="yG68L8h6gqD8pZKWGZSu-3" value="" style="shape=flexArrow;endArrow=classic;html=1;fillColor=#fff2cc;gradientColor=#ffd966;strokeColor=#d6b656;labelBackgroundColor=default;fontColor=default;" edge="1" parent="1">
          <mxGeometry width="50" height="50" relative="1" as="geometry">
            <mxPoint x="299" y="180" as="sourcePoint" />
            <mxPoint x="299" y="220" as="targetPoint" />
          </mxGeometry>
        </mxCell>
        <mxCell id="yG68L8h6gqD8pZKWGZSu-5" value="przygotowanie informacji na temat rynku" style="shape=parallelogram;perimeter=parallelogramPerimeter;whiteSpace=wrap;html=1;fixedSize=1;rounded=1;fillColor=#dae8fc;strokeColor=#6c8ebf;gradientColor=#7ea6e0;fontColor=default;" vertex="1" parent="1">
          <mxGeometry x="184" y="230" width="230" height="30" as="geometry" />
        </mxCell>
        <mxCell id="yG68L8h6gqD8pZKWGZSu-6" value="Odnajdziesz się na rynku?" style="rhombus;whiteSpace=wrap;html=1;shadow=0;rounded=1;fillColor=#dae8fc;strokeColor=#6c8ebf;gradientColor=#7ea6e0;fontColor=default;" vertex="1" parent="1">
          <mxGeometry x="259" y="310" width="80" height="80" as="geometry" />
        </mxCell>
        <mxCell id="yG68L8h6gqD8pZKWGZSu-7" value="" style="endArrow=none;html=1;entryX=0;entryY=0.5;entryDx=0;entryDy=0;fillColor=#fff2cc;gradientColor=#ffd966;strokeColor=#d6b656;labelBackgroundColor=default;fontColor=default;" edge="1" parent="1" target="yG68L8h6gqD8pZKWGZSu-6">
          <mxGeometry width="50" height="50" relative="1" as="geometry">
            <mxPoint x="169" y="350" as="sourcePoint" />
            <mxPoint x="329" y="200" as="targetPoint" />
          </mxGeometry>
        </mxCell>
        <mxCell id="yG68L8h6gqD8pZKWGZSu-8" value="" style="endArrow=none;html=1;fillColor=#fff2cc;gradientColor=#ffd966;strokeColor=#d6b656;labelBackgroundColor=default;fontColor=default;" edge="1" parent="1">
          <mxGeometry width="50" height="50" relative="1" as="geometry">
            <mxPoint x="169" y="150" as="sourcePoint" />
            <mxPoint x="169" y="350" as="targetPoint" />
          </mxGeometry>
        </mxCell>
        <mxCell id="yG68L8h6gqD8pZKWGZSu-9" value="" style="endArrow=classic;html=1;entryX=0.048;entryY=0.347;entryDx=0;entryDy=0;entryPerimeter=0;fillColor=#fff2cc;gradientColor=#ffd966;strokeColor=#d6b656;labelBackgroundColor=default;fontColor=default;" edge="1" parent="1">
          <mxGeometry width="50" height="50" relative="1" as="geometry">
            <mxPoint x="169" y="150" as="sourcePoint" />
            <mxPoint x="199.55999999999995" y="150.41000000000003" as="targetPoint" />
            <Array as="points" />
          </mxGeometry>
        </mxCell>
        <mxCell id="yG68L8h6gqD8pZKWGZSu-10" value="" style="shape=flexArrow;endArrow=classic;html=1;entryX=0.5;entryY=0;entryDx=0;entryDy=0;fillColor=#fff2cc;gradientColor=#ffd966;strokeColor=#d6b656;labelBackgroundColor=default;fontColor=default;" edge="1" parent="1" target="yG68L8h6gqD8pZKWGZSu-6">
          <mxGeometry width="50" height="50" relative="1" as="geometry">
            <mxPoint x="299" y="270" as="sourcePoint" />
            <mxPoint x="299" y="300" as="targetPoint" />
          </mxGeometry>
        </mxCell>
        <mxCell id="yG68L8h6gqD8pZKWGZSu-11" value="" style="endArrow=none;html=1;fillColor=#fff2cc;gradientColor=#ffd966;strokeColor=#d6b656;labelBackgroundColor=default;fontColor=default;" edge="1" parent="1">
          <mxGeometry width="50" height="50" relative="1" as="geometry">
            <mxPoint x="340" y="350" as="sourcePoint" />
            <mxPoint x="450" y="350" as="targetPoint" />
          </mxGeometry>
        </mxCell>
        <mxCell id="yG68L8h6gqD8pZKWGZSu-12" value="" style="endArrow=none;html=1;fillColor=#fff2cc;gradientColor=#ffd966;strokeColor=#d6b656;labelBackgroundColor=default;fontColor=default;" edge="1" parent="1">
          <mxGeometry width="50" height="50" relative="1" as="geometry">
            <mxPoint x="450" y="350" as="sourcePoint" />
            <mxPoint x="450" y="130" as="targetPoint" />
          </mxGeometry>
        </mxCell>
        <mxCell id="yG68L8h6gqD8pZKWGZSu-13" value="" style="endArrow=none;html=1;fillColor=#fff2cc;gradientColor=#ffd966;strokeColor=#d6b656;labelBackgroundColor=default;fontColor=default;" edge="1" parent="1">
          <mxGeometry width="50" height="50" relative="1" as="geometry">
            <mxPoint x="580" y="130" as="sourcePoint" />
            <mxPoint x="450" y="130" as="targetPoint" />
          </mxGeometry>
        </mxCell>
        <mxCell id="yG68L8h6gqD8pZKWGZSu-14" value="" style="endArrow=classic;html=1;" edge="1" parent="1">
          <mxGeometry width="50" height="50" relative="1" as="geometry">
            <mxPoint x="580" y="130" as="sourcePoint" />
            <mxPoint x="580" y="150" as="targetPoint" />
          </mxGeometry>
        </mxCell>
        <mxCell id="yG68L8h6gqD8pZKWGZSu-16" value="" style="shape=flexArrow;endArrow=classic;html=1;fillColor=#fff2cc;gradientColor=#ffd966;strokeColor=#d6b656;labelBackgroundColor=default;fontColor=default;" edge="1" parent="1">
          <mxGeometry width="50" height="50" relative="1" as="geometry">
            <mxPoint x="579.75" y="190" as="sourcePoint" />
            <mxPoint x="579.75" y="230" as="targetPoint" />
          </mxGeometry>
        </mxCell>
        <mxCell id="yG68L8h6gqD8pZKWGZSu-18" value="" style="shape=flexArrow;endArrow=classic;html=1;fillColor=#fff2cc;gradientColor=#ffd966;strokeColor=#d6b656;labelBackgroundColor=default;fontColor=default;" edge="1" parent="1">
          <mxGeometry width="50" height="50" relative="1" as="geometry">
            <mxPoint x="580" y="260" as="sourcePoint" />
            <mxPoint x="580" y="300" as="targetPoint" />
            <Array as="points">
              <mxPoint x="580" y="270" />
            </Array>
          </mxGeometry>
        </mxCell>
        <mxCell id="yG68L8h6gqD8pZKWGZSu-19" value="pobierz wniosek o dofinansowanie" style="shape=parallelogram;perimeter=parallelogramPerimeter;whiteSpace=wrap;html=1;fixedSize=1;rounded=1;fillColor=#dae8fc;strokeColor=#6c8ebf;gradientColor=#7ea6e0;fontColor=default;" vertex="1" parent="1">
          <mxGeometry x="490" y="300" width="180" height="30" as="geometry" />
        </mxCell>
        <mxCell id="yG68L8h6gqD8pZKWGZSu-20" value="" style="shape=flexArrow;endArrow=classic;html=1;fillColor=#fff2cc;gradientColor=#ffd966;strokeColor=#d6b656;labelBackgroundColor=default;fontColor=default;" edge="1" parent="1" target="yG68L8h6gqD8pZKWGZSu-21">
          <mxGeometry width="50" height="50" relative="1" as="geometry">
            <mxPoint x="580" y="440" as="sourcePoint" />
            <mxPoint x="580" y="350" as="targetPoint" />
          </mxGeometry>
        </mxCell>
        <mxCell id="yG68L8h6gqD8pZKWGZSu-21" value="Dostałeś dofinansowanie?" style="rhombus;whiteSpace=wrap;html=1;rounded=1;fillColor=#dae8fc;strokeColor=#6c8ebf;gradientColor=#7ea6e0;fontColor=default;" vertex="1" parent="1">
          <mxGeometry x="430" y="490" width="80" height="80" as="geometry" />
        </mxCell>
        <mxCell id="yG68L8h6gqD8pZKWGZSu-24" value="stwórz logo" style="whiteSpace=wrap;html=1;rounded=1;fillColor=#dae8fc;strokeColor=#6c8ebf;gradientColor=#7ea6e0;fontColor=default;" vertex="1" parent="1">
          <mxGeometry x="510" y="230" width="140" height="20" as="geometry" />
        </mxCell>
        <mxCell id="yG68L8h6gqD8pZKWGZSu-25" value="zastanów się w czym czujesz się komfortowo i co daje Ci satysfakcję" style="whiteSpace=wrap;html=1;rounded=1;fillColor=#dae8fc;strokeColor=#6c8ebf;gradientColor=#7ea6e0;fontColor=default;" vertex="1" parent="1">
          <mxGeometry x="200" y="130" width="200" height="40" as="geometry" />
        </mxCell>
        <mxCell id="yG68L8h6gqD8pZKWGZSu-26" value="wymyśl nazwę firmy/produktu" style="whiteSpace=wrap;html=1;rounded=1;fillColor=#dae8fc;strokeColor=#6c8ebf;gradientColor=#7ea6e0;fontColor=default;" vertex="1" parent="1">
          <mxGeometry x="510" y="150" width="140" height="30" as="geometry" />
        </mxCell>
        <mxCell id="yG68L8h6gqD8pZKWGZSu-27" value="" style="shape=flexArrow;endArrow=classic;html=1;fillColor=#fff2cc;gradientColor=#ffd966;strokeColor=#d6b656;labelBackgroundColor=default;fontColor=default;" edge="1" parent="1">
          <mxGeometry width="50" height="50" relative="1" as="geometry">
            <mxPoint x="579.6" y="340" as="sourcePoint" />
            <mxPoint x="579.6" y="380" as="targetPoint" />
          </mxGeometry>
        </mxCell>
        <mxCell id="yG68L8h6gqD8pZKWGZSu-28" value="złóż wniosek o dofinansowanie" style="whiteSpace=wrap;html=1;rounded=1;fillColor=#dae8fc;strokeColor=#6c8ebf;gradientColor=#7ea6e0;fontColor=default;" vertex="1" parent="1">
          <mxGeometry x="505" y="380" width="150" height="50" as="geometry" />
        </mxCell>
        <mxCell id="yG68L8h6gqD8pZKWGZSu-29" value="" style="endArrow=none;html=1;exitX=1;exitY=0.5;exitDx=0;exitDy=0;fillColor=#fff2cc;gradientColor=#ffd966;strokeColor=#d6b656;labelBackgroundColor=default;fontColor=default;" edge="1" parent="1" source="yG68L8h6gqD8pZKWGZSu-21">
          <mxGeometry width="50" height="50" relative="1" as="geometry">
            <mxPoint x="580" y="520" as="sourcePoint" />
            <mxPoint x="610" y="530" as="targetPoint" />
          </mxGeometry>
        </mxCell>
        <mxCell id="yG68L8h6gqD8pZKWGZSu-30" value="" style="endArrow=classic;html=1;entryX=0.5;entryY=0;entryDx=0;entryDy=0;fillColor=#fff2cc;gradientColor=#ffd966;strokeColor=#d6b656;labelBackgroundColor=default;fontColor=default;" edge="1" parent="1" target="yG68L8h6gqD8pZKWGZSu-31">
          <mxGeometry width="50" height="50" relative="1" as="geometry">
            <mxPoint x="610" y="530" as="sourcePoint" />
            <mxPoint x="690" y="560" as="targetPoint" />
            <Array as="points">
              <mxPoint x="630" y="530" />
            </Array>
          </mxGeometry>
        </mxCell>
        <mxCell id="yG68L8h6gqD8pZKWGZSu-33" style="edgeStyle=orthogonalEdgeStyle;orthogonalLoop=1;jettySize=auto;html=1;fontSize=6;entryX=0.5;entryY=0;entryDx=0;entryDy=0;fillColor=#fff2cc;gradientColor=#ffd966;strokeColor=#d6b656;labelBackgroundColor=default;fontColor=default;" edge="1" parent="1" source="yG68L8h6gqD8pZKWGZSu-31" target="yG68L8h6gqD8pZKWGZSu-51">
          <mxGeometry relative="1" as="geometry">
            <mxPoint x="750" y="740" as="targetPoint" />
            <Array as="points">
              <mxPoint x="710" y="665" />
            </Array>
          </mxGeometry>
        </mxCell>
        <mxCell id="yG68L8h6gqD8pZKWGZSu-34" style="edgeStyle=orthogonalEdgeStyle;orthogonalLoop=1;jettySize=auto;html=1;fontSize=6;entryX=1;entryY=0.5;entryDx=0;entryDy=0;fillColor=#fff2cc;gradientColor=#ffd966;strokeColor=#d6b656;labelBackgroundColor=default;fontColor=default;" edge="1" parent="1" source="yG68L8h6gqD8pZKWGZSu-31" target="yG68L8h6gqD8pZKWGZSu-41">
          <mxGeometry relative="1" as="geometry">
            <mxPoint x="550" y="720" as="targetPoint" />
          </mxGeometry>
        </mxCell>
        <mxCell id="yG68L8h6gqD8pZKWGZSu-31" value="&lt;font style=&quot;font-size: 6px&quot;&gt;Możesz wstrzymać&lt;br&gt;&amp;nbsp;się do następnej edycji dofinansowań?&lt;/font&gt;" style="rhombus;whiteSpace=wrap;html=1;rounded=1;fillColor=#dae8fc;gradientColor=#7ea6e0;strokeColor=#6c8ebf;fontColor=default;" vertex="1" parent="1">
          <mxGeometry x="590" y="625" width="80" height="80" as="geometry" />
        </mxCell>
        <mxCell id="yG68L8h6gqD8pZKWGZSu-41" value="zaplanuj kampanię reklamową" style="shape=parallelogram;perimeter=parallelogramPerimeter;whiteSpace=wrap;html=1;fixedSize=1;fontSize=12;rounded=1;fillColor=#dae8fc;gradientColor=#7ea6e0;strokeColor=#6c8ebf;fontColor=default;" vertex="1" parent="1">
          <mxGeometry x="274" y="640" width="140" height="50" as="geometry" />
        </mxCell>
        <mxCell id="yG68L8h6gqD8pZKWGZSu-42" value="" style="shape=flexArrow;endArrow=classic;html=1;fontSize=12;fillColor=#fff2cc;gradientColor=#ffd966;strokeColor=#d6b656;labelBackgroundColor=default;fontColor=default;" edge="1" parent="1">
          <mxGeometry width="50" height="50" relative="1" as="geometry">
            <mxPoint x="343.6" y="700" as="sourcePoint" />
            <mxPoint x="343.6" y="750" as="targetPoint" />
          </mxGeometry>
        </mxCell>
        <mxCell id="yG68L8h6gqD8pZKWGZSu-43" value="stwórz produkty promocyjne" style="whiteSpace=wrap;html=1;fontSize=12;rounded=1;fillColor=#dae8fc;gradientColor=#7ea6e0;strokeColor=#6c8ebf;fontColor=default;" vertex="1" parent="1">
          <mxGeometry x="284" y="750" width="120" height="40" as="geometry" />
        </mxCell>
        <mxCell id="yG68L8h6gqD8pZKWGZSu-44" value="" style="shape=flexArrow;endArrow=classic;html=1;fontSize=12;fillColor=#fff2cc;gradientColor=#ffd966;strokeColor=#d6b656;labelBackgroundColor=default;fontColor=default;" edge="1" parent="1" target="yG68L8h6gqD8pZKWGZSu-45">
          <mxGeometry width="50" height="50" relative="1" as="geometry">
            <mxPoint x="344" y="800" as="sourcePoint" />
            <mxPoint x="344" y="840" as="targetPoint" />
          </mxGeometry>
        </mxCell>
        <mxCell id="yG68L8h6gqD8pZKWGZSu-45" value="stwórz profile identyfikujące twoją firmę/produkt w mediach" style="whiteSpace=wrap;html=1;fontSize=12;rounded=1;fillColor=#dae8fc;gradientColor=#7ea6e0;strokeColor=#6c8ebf;fontColor=default;" vertex="1" parent="1">
          <mxGeometry x="284" y="850" width="120" height="60" as="geometry" />
        </mxCell>
        <mxCell id="yG68L8h6gqD8pZKWGZSu-46" value="" style="endArrow=classic;html=1;fontSize=12;exitX=0;exitY=0.5;exitDx=0;exitDy=0;entryX=0.5;entryY=0;entryDx=0;entryDy=0;strokeColor=#d6b656;labelBackgroundColor=default;fontColor=default;fillColor=#fff2cc;gradientColor=#ffd966;" edge="1" parent="1" source="yG68L8h6gqD8pZKWGZSu-21" target="yG68L8h6gqD8pZKWGZSu-41">
          <mxGeometry width="50" height="50" relative="1" as="geometry">
            <mxPoint x="470" y="640" as="sourcePoint" />
            <mxPoint x="350" y="530" as="targetPoint" />
            <Array as="points">
              <mxPoint x="344" y="530" />
            </Array>
          </mxGeometry>
        </mxCell>
        <mxCell id="yG68L8h6gqD8pZKWGZSu-47" value="" style="shape=flexArrow;endArrow=classic;html=1;fontSize=12;fillColor=#fff2cc;gradientColor=#ffd966;strokeColor=#d6b656;labelBackgroundColor=default;fontColor=default;" edge="1" parent="1" target="yG68L8h6gqD8pZKWGZSu-48">
          <mxGeometry width="50" height="50" relative="1" as="geometry">
            <mxPoint x="344" y="919" as="sourcePoint" />
            <mxPoint x="344" y="969" as="targetPoint" />
          </mxGeometry>
        </mxCell>
        <mxCell id="yG68L8h6gqD8pZKWGZSu-48" value="postaw sklep/załóż stronę internetową firmy" style="whiteSpace=wrap;html=1;fontSize=12;rounded=1;fillColor=#dae8fc;gradientColor=#7ea6e0;strokeColor=#6c8ebf;fontColor=default;" vertex="1" parent="1">
          <mxGeometry x="284" y="969" width="120" height="60" as="geometry" />
        </mxCell>
        <mxCell id="yG68L8h6gqD8pZKWGZSu-49" value="" style="shape=flexArrow;endArrow=classic;html=1;fontSize=12;fillColor=#fff2cc;gradientColor=#ffd966;strokeColor=#d6b656;labelBackgroundColor=default;fontColor=default;" edge="1" parent="1">
          <mxGeometry width="50" height="50" relative="1" as="geometry">
            <mxPoint x="344" y="1039" as="sourcePoint" />
            <mxPoint x="344" y="1089" as="targetPoint" />
          </mxGeometry>
        </mxCell>
        <mxCell id="yG68L8h6gqD8pZKWGZSu-50" value="załóż działalność gospodarczą" style="whiteSpace=wrap;html=1;fontSize=12;rounded=1;fillColor=#dae8fc;gradientColor=#7ea6e0;strokeColor=#6c8ebf;fontColor=default;" vertex="1" parent="1">
          <mxGeometry x="284" y="1089" width="120" height="41" as="geometry" />
        </mxCell>
        <mxCell id="yG68L8h6gqD8pZKWGZSu-52" style="edgeStyle=orthogonalEdgeStyle;orthogonalLoop=1;jettySize=auto;html=1;entryX=1;entryY=0.5;entryDx=0;entryDy=0;fontSize=12;fillColor=#fff2cc;gradientColor=#ffd966;strokeColor=#d6b656;labelBackgroundColor=default;fontColor=default;" edge="1" parent="1" source="yG68L8h6gqD8pZKWGZSu-51" target="yG68L8h6gqD8pZKWGZSu-19">
          <mxGeometry relative="1" as="geometry">
            <Array as="points">
              <mxPoint x="800" y="770" />
              <mxPoint x="800" y="315" />
            </Array>
          </mxGeometry>
        </mxCell>
        <mxCell id="yG68L8h6gqD8pZKWGZSu-51" value="poczekaj do kolejnej edycji dofinansowań" style="shape=parallelogram;perimeter=parallelogramPerimeter;whiteSpace=wrap;html=1;fixedSize=1;fontSize=12;rounded=1;fillColor=#dae8fc;gradientColor=#7ea6e0;strokeColor=#6c8ebf;fontColor=default;" vertex="1" parent="1">
          <mxGeometry x="640" y="740" width="140" height="60" as="geometry" />
        </mxCell>
        <mxCell id="yG68L8h6gqD8pZKWGZSu-53" value="KONIEC" style="ellipse;whiteSpace=wrap;html=1;fontSize=12;rounded=1;fillColor=#dae8fc;gradientColor=#7ea6e0;strokeColor=#6c8ebf;fontColor=default;" vertex="1" parent="1">
          <mxGeometry x="570" y="1069.5" width="120" height="80" as="geometry" />
        </mxCell>
        <mxCell id="yG68L8h6gqD8pZKWGZSu-54" value="" style="shape=flexArrow;endArrow=classic;html=1;fontSize=12;entryX=0;entryY=0.5;entryDx=0;entryDy=0;fillColor=#fff2cc;gradientColor=#ffd966;strokeColor=#d6b656;" edge="1" parent="1" target="yG68L8h6gqD8pZKWGZSu-53">
          <mxGeometry width="50" height="50" relative="1" as="geometry">
            <mxPoint x="410" y="1110" as="sourcePoint" />
            <mxPoint x="520" y="1020" as="targetPoint" />
          </mxGeometry>
        </mxCell>
        <mxCell id="yG68L8h6gqD8pZKWGZSu-55" value="NIE" style="text;html=1;resizable=0;autosize=1;align=center;verticalAlign=middle;points=[];fillColor=none;strokeColor=none;rounded=1;" vertex="1" parent="1">
          <mxGeometry x="584" y="503" width="30" height="18" as="geometry" />
        </mxCell>
        <mxCell id="yG68L8h6gqD8pZKWGZSu-56" value="TAK" style="text;html=1;resizable=0;autosize=1;align=center;verticalAlign=middle;points=[];fillColor=none;strokeColor=none;shadow=0;fillStyle=auto;rounded=1;" vertex="1" parent="1">
          <mxGeometry x="333" y="503" width="32" height="18" as="geometry" />
        </mxCell>
        <mxCell id="yG68L8h6gqD8pZKWGZSu-57" value="TAK" style="text;html=1;resizable=0;autosize=1;align=center;verticalAlign=middle;points=[];fillColor=none;strokeColor=none;shadow=0;fillStyle=auto;rounded=1;" vertex="1" parent="1">
          <mxGeometry x="709" y="687" width="32" height="18" as="geometry" />
        </mxCell>
        <mxCell id="yG68L8h6gqD8pZKWGZSu-58" value="NIE" style="text;html=1;resizable=0;autosize=1;align=center;verticalAlign=middle;points=[];fillColor=none;strokeColor=none;rounded=1;" vertex="1" parent="1">
          <mxGeometry x="505" y="644" width="30" height="18" as="geometry" />
        </mxCell>
        <mxCell id="yG68L8h6gqD8pZKWGZSu-59" value="NIE" style="text;html=1;resizable=0;autosize=1;align=center;verticalAlign=middle;points=[];fillColor=none;strokeColor=none;rounded=1;" vertex="1" parent="1">
          <mxGeometry x="187" y="325" width="30" height="18" as="geometry" />
        </mxCell>
        <mxCell id="yG68L8h6gqD8pZKWGZSu-60" value="TAK" style="text;html=1;resizable=0;autosize=1;align=center;verticalAlign=middle;points=[];fillColor=none;strokeColor=none;shadow=0;fillStyle=auto;rounded=1;" vertex="1" parent="1">
          <mxGeometry x="404" y="328" width="32" height="18" as="geometry" />
        </mxCell>
      </root>
    </mxGraphModel>
  </diagram>
  <diagram id="X70I8UGa-l9-yTh0XWRy" name="Page-2">
    <mxGraphModel dx="1038" dy="521" grid="1" gridSize="10" guides="1" tooltips="1" connect="1" arrows="1" fold="1" page="1" pageScale="1" pageWidth="827" pageHeight="1169" math="0" shadow="0">
      <root>
        <mxCell id="UHdm9BW1MRAe0uW6uRIO-0" />
        <mxCell id="UHdm9BW1MRAe0uW6uRIO-1" parent="UHdm9BW1MRAe0uW6uRIO-0" />
      </root>
    </mxGraphModel>
  </diagram>
</mxfile>
